<?xml version="1.0" encoding="UTF-8"?>
<svg version="1.1" xmlns="http://www.w3.org/2000/svg" width="1024" height="1024">
<path d="M0 0 C3.88831604 3.60825103 7.63056805 7.35647203 11.37304688 11.11425781 C12.49695311 12.23544957 13.6212834 13.35621638 14.7460022 14.47659302 C17.77902795 17.50055306 20.80575646 20.53074171 23.83106804 23.56241703 C27.00176713 26.73819884 30.17736464 29.90907658 33.35217285 33.08074951 C38.6749058 38.39985262 43.99342649 43.72314013 49.30957031 49.04882812 C55.46120519 55.21137924 61.62005722 61.36664713 67.78264189 67.51824689 C73.07730941 72.80385352 78.3680886 78.09332855 83.65560579 83.38608813 C86.81239852 86.54600285 89.97053664 89.70454104 93.13218689 92.85959625 C96.09817765 95.81983045 99.0592728 98.78487441 102.01658249 101.75378036 C103.10492928 102.84478138 104.19499959 103.93406606 105.28686905 105.0215416 C106.77121933 106.50046582 108.24933284 107.98534768 109.72595215 109.47198486 C110.5562368 110.30302357 111.38652145 111.13406227 112.24196625 111.99028397 C114 114 114 114 114 116 C114.59554687 116.25652344 115.19109375 116.51304687 115.8046875 116.77734375 C118.19696371 118.10969687 119.42728199 119.43368605 121.125 121.5625 C123.20903634 124.21025666 123.20903634 124.21025666 126 126 C126 126.66 126 127.32 126 128 C126.66 128 127.32 128 128 128 C136.32291917 137.63801245 141.10283486 147.16763254 141.14044189 159.95812988 C141.14615204 161.12727432 141.15186218 162.29641876 141.15774536 163.50099182 C141.15942215 165.40412392 141.15942215 165.40412392 141.16113281 167.34570312 C141.16576617 168.7062951 141.17079152 170.06688578 141.17617798 171.42747498 C141.18924906 175.11128889 141.19573587 178.79508462 141.20018864 182.47891808 C141.20312629 184.78225827 141.20723226 187.08559356 141.21169281 189.38893127 C141.22535016 196.60133003 141.23502696 203.81371751 141.2388947 211.02612829 C141.24337946 219.34211407 141.26095403 227.65793581 141.2898953 235.97387171 C141.31151693 242.41055464 141.32159914 248.84719141 141.32293582 255.28391027 C141.32398296 259.12493047 141.32987207 262.96579609 141.34775543 266.80677795 C141.36424587 270.41837196 141.36638707 274.02969529 141.35761642 277.64131355 C141.35648045 279.59389846 141.37018793 281.54647444 141.3843689 283.49900818 C141.35005969 290.70161474 141.07313736 295.74745161 135.92578125 301.1953125 C131.88136222 303.69000087 127.76446681 304.70364162 123.1875 305.875 C102.57166476 311.49443182 83.60555418 319.23423624 67 333 C65.72769531 334.04414062 65.72769531 334.04414062 64.4296875 335.109375 C38.69013172 357.21795896 22.99934111 389.33182365 20 423 C19.15700742 440.98196834 20.91924807 457.73721351 26 475 C26.28230469 476.03125 26.56460938 477.0625 26.85546875 478.125 C27.80003888 481.60606244 27.80003888 481.60606244 29 485 C29.66 485.33 30.32 485.66 31 486 C31.75390625 487.57421875 31.75390625 487.57421875 32.5625 489.6875 C36.62126956 499.16805874 42.65420094 508.10869032 49.78515625 515.546875 C51 517 51 517 51 519 C51.66 519 52.32 519 53 519 C54.39564451 520.6675509 55.79035642 522.33589182 57.18017578 524.00830078 C60.36641989 527.4954727 64.12283038 530.1767065 67.9375 532.9375 C69.20146606 533.85426514 69.20146606 533.85426514 70.4909668 534.78955078 C87.79569657 547.12971492 107.20425122 554.64275009 127.92285156 559.27807617 C132.50136187 560.35480641 135.58594401 561.56687107 139 565 C140.76939387 567.99765653 141.44456036 570.73628598 142.0078125 574.15625 C146.28678216 598.5584141 154.5321607 621.10640013 171 640 C171.80824219 641.02287109 171.80824219 641.02287109 172.6328125 642.06640625 C180.42695671 651.68671469 190.67374616 658.66280594 202.5625 662 C207.12495779 662 210.21735299 660.46089449 214 658 C214.66 657.34 215.32 656.68 216 656 C218.125 656.375 218.125 656.375 220 657 C219.27554687 657.71542969 218.55109375 658.43085937 217.8046875 659.16796875 C215.17226193 661.82605864 212.63641323 664.54031703 210.125 667.3125 C208.81789063 668.75496094 208.81789063 668.75496094 207.484375 670.2265625 C205.42329603 672.52745254 203.39127707 674.84750873 201.375 677.1875 C177.62611656 704.36064106 144.84671163 723.68040811 108.43505859 726.17578125 C68.27589617 728.22958316 36.38516385 712.27077267 7.0078125 686.234375 C-13.60016599 666.71102695 -27.97520923 638.96341872 -34.75 611.6875 C-35.04813599 610.51743408 -35.04813599 610.51743408 -35.35229492 609.32373047 C-39.28206925 592.5097539 -39.29212214 575.25408285 -39.26069641 558.09162903 C-39.2637229 555.72567029 -39.26761486 553.35971253 -39.27228898 550.99375647 C-39.2814455 545.21515268 -39.28143958 539.43660155 -39.27737736 533.65799314 C-39.27302269 526.72601422 -39.28033479 519.79405914 -39.28786864 512.86208468 C-39.30305157 498.49926941 -39.30481995 484.13647188 -39.30234561 469.77365027 C-39.30050913 458.68673623 -39.30227998 447.59982797 -39.30657005 436.51291466 C-39.30717246 434.91710943 -39.30777366 433.3213042 -39.30837366 431.72549897 C-39.30928094 429.32055417 -39.31018962 426.91560938 -39.31110601 424.51066458 C-39.3195257 402.17595463 -39.32387765 379.84124685 -39.31969929 357.50653553 C-39.31954291 356.66587837 -39.31938654 355.82522121 -39.31922542 354.95908959 C-39.31841969 350.69874936 -39.31757392 346.43840914 -39.31671212 342.17806891 C-39.31654103 341.3320144 -39.31636994 340.48595989 -39.31619367 339.61426736 C-39.31584702 337.90334839 -39.31549849 336.19242942 -39.31514808 334.48151045 C-39.30978432 307.8267719 -39.31774392 281.17206638 -39.33618164 254.51733398 C-39.35689075 224.54414802 -39.36762713 194.57098251 -39.36360615 164.59778899 C-39.36321082 161.4035633 -39.36284927 158.20933762 -39.36250877 155.01511192 C-39.36241804 154.22865589 -39.36232731 153.44219986 -39.36223383 152.63191182 C-39.36106774 140.75859008 -39.36771645 128.88528901 -39.37832069 117.01197243 C-39.39035909 103.51940313 -39.39194668 90.02687944 -39.37953053 76.53430948 C-39.37347843 69.64927627 -39.37219569 62.7643244 -39.38453293 55.87929726 C-39.39533591 49.580123 -39.3923552 43.28111306 -39.37827124 36.98194667 C-39.37560904 34.70042243 -39.37803826 32.41888554 -39.38600711 30.13737366 C-39.39607372 27.04099224 -39.3877246 23.94518641 -39.37473011 20.84882832 C-39.38203946 19.95919428 -39.3893488 19.06956024 -39.39687964 18.1529676 C-39.32291322 9.67391643 -37.15253778 3.15253778 -31 -3 C-19.99096005 -11.06985832 -9.68296323 -8.04686138 0 0 Z " fill="#229DAD" transform="translate(297,123)"/>
<path d="M0 0 C1.175625 1.0209375 1.175625 1.0209375 2.375 2.0625 C2.375 2.7225 2.375 3.3825 2.375 4.0625 C2.96796875 4.31644531 3.5609375 4.57039063 4.171875 4.83203125 C6.61897699 6.19876374 7.86847954 7.57992982 9.625 9.75 C12.7182652 13.43245857 16.04584389 16.48996193 19.7734375 19.51953125 C21.375 21.0625 21.375 21.0625 22.375 24.0625 C23.6964727 24.75237834 25.03213923 25.41523871 26.375 26.0625 C27.83356162 27.34096442 29.24225644 28.67721362 30.61444092 30.04797363 C31.87219078 31.29726402 31.87219078 31.29726402 33.15534973 32.5717926 C34.06669174 33.48718307 34.97803375 34.40257355 35.91699219 35.34570312 C36.89252529 36.31852544 37.8684832 37.29092192 38.84483337 38.26292419 C41.49177004 40.90074753 44.13234666 43.54485277 46.7715559 46.19040489 C49.53255754 48.95646908 52.29843433 51.71765143 55.0635376 54.47961426 C59.70400391 59.11644289 64.34023885 63.75747104 68.97412109 68.40087891 C74.33724813 73.77490293 79.70755964 79.1416666 85.08163524 84.50474024 C89.69257757 89.10661934 94.29962686 93.71236859 98.90341878 98.32140112 C101.6544999 101.07560561 104.40692715 103.82842825 107.16286469 106.57777405 C109.75124923 109.16039931 112.33472666 111.74783332 114.91443062 114.33912849 C116.31853697 115.74715835 117.72759606 117.15024376 119.13676453 118.5532074 C119.96398514 119.38606766 120.79120575 120.21892792 121.64349365 121.07702637 C122.73079081 122.1654546 122.73079081 122.1654546 123.84005356 123.27587128 C125.375 125.0625 125.375 125.0625 125.375 127.0625 C125.92091797 127.28408279 126.46683594 127.50566559 127.02929688 127.73396301 C130.11394286 129.48101542 132.426233 131.82685943 134.90625 134.3190918 C135.44660889 134.85433975 135.98696777 135.38958771 136.54370117 135.9410553 C138.32599799 137.70946943 140.10078473 139.48519917 141.875 141.26171875 C143.11501485 142.49784497 144.35525256 143.73374767 145.59570312 144.96943665 C148.1948294 147.56110282 150.79004813 150.15660853 153.3828125 152.75463867 C156.69639449 156.07400441 160.02117572 159.38189067 163.34924316 162.68672466 C165.91449493 165.23719893 168.47273749 167.79461561 171.02905273 170.35404396 C172.25144813 171.57592782 173.47619277 172.79546635 174.70336914 174.01254845 C176.42413117 175.72089052 178.13497407 177.43861512 179.84375 179.15893555 C180.59821411 179.90193405 180.59821411 179.90193405 181.36791992 180.65994263 C186.92136037 186.29610274 189.93598128 191.78668181 190.40234375 199.71484375 C190.28764409 209.56262903 181.69211402 217.04718991 175.11328125 223.51953125 C174.44080856 224.18917404 173.76833588 224.85881683 173.07548523 225.54875183 C170.9508587 227.66229869 168.81935429 229.76874632 166.6875 231.875 C165.24627971 233.30617243 163.80552032 234.73780916 162.36523438 236.16992188 C159.20514567 239.31047335 156.04072138 242.44657741 152.87226868 245.57868958 C151.82734308 246.61422282 150.80707556 247.67497512 149.80680847 248.75370789 C148.375 250.0625 148.375 250.0625 146.375 250.0625 C145.715 251.3825 145.055 252.7025 144.375 254.0625 C143.715 254.0625 143.055 254.0625 142.375 254.0625 C142.375 254.7225 142.375 255.3825 142.375 256.0625 C140.80078125 257.578125 140.80078125 257.578125 138.6875 259.3125 C136.12865111 261.48147174 134.03563189 263.46974173 131.875 266.0625 C129.27888994 269.17783207 126.5005716 271.64640502 123.42578125 274.26953125 C120.25035991 277.04575676 117.3267192 280.05290395 114.375 283.0625 C113.0446875 284.361875 113.0446875 284.361875 111.6875 285.6875 C109.3542956 287.99181284 109.3542956 287.99181284 107.5 290.5 C105.28598741 293.16983871 102.93104562 295.25106599 100.25390625 297.4375 C97.83526713 299.52929599 95.62090702 301.78646904 93.375 304.0625 C82.375 315.0625 82.375 315.0625 79.75 317.65234375 C77.68738651 319.74548935 75.76764202 321.87971949 73.875 324.125 C71.25212443 327.1566354 68.56903961 329.62494346 65.375 332.0625 C62.75174162 334.55779455 60.41137554 337.01573145 58.1875 339.875 C57.589375 340.596875 56.99125 341.31875 56.375 342.0625 C55.715 342.0625 55.055 342.0625 54.375 342.0625 C54.045 343.0525 53.715 344.0425 53.375 345.0625 C51.81640625 346.5625 51.81640625 346.5625 49.9375 348.0625 C47.48725368 350.02678932 46.16119422 351.38320868 44.375 354.0625 C43.715 354.0625 43.055 354.0625 42.375 354.0625 C42.16954559 354.59327148 41.96409119 355.12404297 41.75241089 355.67089844 C39.8012141 359.05876572 37.09668562 361.6017946 34.33642578 364.328125 C33.71833038 364.94651245 33.10023499 365.5648999 32.46340942 366.20202637 C30.42041568 368.24362773 28.37042783 370.27805209 26.3203125 372.3125 C24.8974213 373.73165897 23.47497257 375.15126172 22.052948 376.57128906 C18.30731677 380.30928568 14.55572277 384.04124184 10.80285645 387.77197266 C6.99128724 391.56313537 3.18531968 395.35991204 -0.62109375 399.15625 C-6.77296403 405.29053582 -12.92829255 411.42132591 -19.0880127 417.54772949 C-21.93759441 420.38209038 -24.78476823 423.21876103 -27.625 426.0625 C-28.285 425.7325 -28.945 425.4025 -29.625 425.0625 C-29.625 377.5425 -29.625 330.0225 -29.625 281.0625 C-54.61914859 280.85282995 -54.61914859 280.85282995 -79.61352539 280.67456055 C-84.49694824 280.62463379 -84.49694824 280.62463379 -86.79808044 280.5974884 C-88.37237704 280.58155793 -89.94673618 280.57112337 -91.52110291 280.56538391 C-102.29373087 280.52099075 -112.12639427 279.54025788 -122.625 277.0625 C-124.29028243 276.72231868 -125.9564402 276.38622379 -127.625 276.0625 C-127.625 275.4025 -127.625 274.7425 -127.625 274.0625 C-128.34300781 273.959375 -129.06101562 273.85625 -129.80078125 273.75 C-142.49213575 270.66054164 -154.67312482 257.62011956 -161.625 247.0625 C-166.44618168 238.58070194 -169.95333007 229.6976369 -171.625 220.0625 C-171.85509766 218.73992187 -171.85509766 218.73992187 -172.08984375 217.390625 C-174.64933008 197.02976744 -169.93623701 175.72697286 -157.34521484 159.40332031 C-144.5226371 143.8810054 -127.80323239 132.8868914 -107.625 130.0625 C-104.77795613 129.83247835 -101.9489261 129.64033691 -99.09765625 129.5 C-98.24629089 129.45802994 -97.39492554 129.41605988 -96.51776123 129.37281799 C-84.34735889 128.84368462 -72.16440317 128.95077179 -59.98539734 128.99201584 C-54.16508043 129.00981786 -48.34474396 129.02077122 -42.52441406 129.03344727 C-40.06512447 129.0389657 -37.60583491 129.04450307 -35.14654541 129.05006409 C-33.55171011 129.05365606 -33.55171011 129.05365606 -31.92465591 129.05732059 C-31.16576946 129.0590298 -30.40688301 129.060739 -29.625 129.0625 C-29.62776538 128.48327065 -29.63053076 127.90404131 -29.63337994 127.30725956 C-29.69976278 113.18405515 -29.74934025 99.06087426 -29.78043652 84.93754673 C-29.79587589 78.10747725 -29.81690897 71.2775122 -29.85131836 64.44750977 C-29.88452342 57.85339028 -29.90186512 51.25935059 -29.90963173 44.66514397 C-29.91516502 42.15221387 -29.92597016 39.63928955 -29.94219017 37.12640572 C-29.96403917 33.6004986 -29.96696373 30.07503644 -29.96557617 26.54907227 C-29.976362 25.51544556 -29.98714783 24.48181885 -29.9982605 23.41687012 C-29.96267837 15.03395633 -28.77852715 7.21602715 -22.625 1.0625 C-15.88202887 -3.65757979 -7.18596939 -4.58533285 0 0 Z " fill="#F21F2D" transform="translate(543.625,351.9375)"/>
<path d="M0 0 C3.88943267 3.61800284 7.63096711 7.377324 11.37304688 11.14599609 C12.49693525 12.27044954 13.62126605 13.39446094 14.7460022 14.51806641 C17.77885061 17.55034406 20.80551901 20.58872164 23.83106804 23.62828016 C27.00116576 26.81093173 30.17697761 29.98787125 33.35217285 33.16543579 C39.35539601 39.17486009 45.35350528 45.18936161 51.34976816 51.20573008 C58.18019308 58.05855663 65.01633896 64.90566402 71.85295773 71.75231051 C85.90832105 85.82854486 99.95652877 99.91190187 114 114 C113.67 114.66 113.34 115.32 113 116 C107.88024019 111.60526064 103.22920841 107.25447105 99 102 C98.34 101.67 97.68 101.34 97 101 C97 100.34 97 99.68 97 99 C96.34 99 95.68 99 95 99 C93.66796875 97.64453125 93.66796875 97.64453125 92.1875 95.8125 C89.63441906 92.67077305 86.88405277 89.84194981 84 87 C83.02000557 86.0216618 82.04086637 85.04246631 81.0625 84.0625 C80.55976563 83.55976563 80.05703125 83.05703125 79.5390625 82.5390625 C74.02604167 77.02604167 68.51302083 71.51302083 63 66 C62.31292969 65.31421875 61.62585938 64.6284375 60.91796875 63.921875 C59.37327899 62.37403923 57.84088946 60.8139334 56.3125 59.25 C54.07059975 56.97899948 54.07059975 56.97899948 51.625 55.1875 C49.37918719 53.31598932 47.67317922 51.53643411 45.79150391 49.32495117 C42.25811818 45.24698046 38.54077353 41.41155456 34.7109375 37.61328125 C34.04462311 36.94838181 33.37830872 36.28348236 32.69180298 35.59843445 C30.5885683 33.50073241 28.4818687 31.40655144 26.375 29.3125 C24.95549538 27.89802104 23.53622265 26.48330932 22.1171875 25.06835938 C19.51363665 22.47292421 16.90877089 19.87882537 14.30224609 17.28637695 C6.35690003 9.38034602 6.35690003 9.38034602 3.859375 6.71875 C-1.94565634 0.61271703 -7.79742974 -5.12595041 -16.625 -5.5 C-23.31804303 -5.05767716 -28.03584456 -2.39233834 -32.73828125 2.20703125 C-36.49650461 7.54766444 -36.28403041 13.44547792 -36.25168228 19.68919945 C-36.25458916 20.66383221 -36.25749604 21.63846498 -36.26049101 22.64263207 C-36.26781407 25.92216656 -36.26083675 29.20151532 -36.25396729 32.48104858 C-36.25627083 34.85070982 -36.25944663 37.22037034 -36.26342177 39.59002936 C-36.27004362 44.74941158 -36.2704245 49.90875578 -36.26532745 55.06813812 C-36.25776812 62.74080315 -36.2616272 70.41343283 -36.26774407 78.08609762 C-36.27828342 91.79163176 -36.27735927 105.49714728 -36.27158624 119.2026832 C-36.26655643 131.20281848 -36.26524109 143.20294692 -36.26763153 155.20308304 C-36.2677843 155.99888435 -36.26793707 156.79468566 -36.26809447 157.61460216 C-36.26871715 160.8450761 -36.26935395 164.07555004 -36.270014 167.30602397 C-36.276135 197.62574628 -36.27058138 227.94545674 -36.2598202 258.26517722 C-36.25033782 285.18639405 -36.25117023 312.10759194 -36.26074219 339.02880859 C-36.27146138 369.27774999 -36.27569177 399.52668089 -36.26951766 429.77562392 C-36.26887624 433.00333571 -36.26825056 436.23104751 -36.26763153 439.45875931 C-36.26747338 440.25349621 -36.26731522 441.04823312 -36.26715227 441.86705296 C-36.26488052 453.85099123 -36.26753212 465.83492189 -36.27259064 477.8188591 C-36.27831894 491.4575331 -36.27685912 505.09618556 -36.26602915 518.73485689 C-36.26068669 525.69165788 -36.25843948 532.64842395 -36.26532745 539.60522461 C-36.27130797 545.97993936 -36.26797708 552.35458042 -36.25737235 558.72928853 C-36.25514712 561.02951249 -36.25625478 563.32974273 -36.26112393 565.62996261 C-36.2829467 576.80047121 -36.11629854 587.69220882 -34.42857146 598.74905455 C-34.01625035 601.87673232 -33.92458753 604.84983381 -34 608 C-34.66 607.67 -35.32 607.34 -36 607 C-36.59765625 604.734375 -36.59765625 604.734375 -37.0625 601.75 C-37.21847656 600.79609375 -37.37445313 599.8421875 -37.53515625 598.859375 C-39.14376432 585.50387273 -39.14634491 572.24642957 -39.14044189 558.81315613 C-39.14302863 556.45237645 -39.14604265 554.09159721 -39.1494453 551.73081857 C-39.15664065 545.94174715 -39.1592161 540.15268676 -39.15977435 534.36361119 C-39.16069228 527.42392659 -39.16737215 520.48425041 -39.17412117 513.54456946 C-39.19013418 496.78336469 -39.19607772 480.02216088 -39.20086992 463.26094983 C-39.20320915 455.33037946 -39.20681201 447.39980981 -39.2105653 439.46924 C-39.22339252 412.31260214 -39.23411565 385.15596467 -39.2375679 357.99932384 C-39.23778953 356.29676126 -39.23801132 354.59419868 -39.23823325 352.89163609 C-39.23845389 351.18504384 -39.23867437 349.4784516 -39.2388947 347.77185935 C-39.23933725 344.34831313 -39.23978436 340.92476692 -39.24023438 337.5012207 C-39.24034377 336.65238912 -39.24045316 335.80355754 -39.24056586 334.92900378 C-39.24420021 307.37725636 -39.26013873 279.82553519 -39.28342474 252.27379783 C-39.30801144 223.12980077 -39.32174005 193.98581873 -39.32293582 164.841811 C-39.32310727 161.64412168 -39.3233227 158.44643237 -39.32357025 155.24874306 C-39.32362602 154.46140802 -39.32368179 153.67407299 -39.32373925 152.86287931 C-39.32489022 140.18874663 -39.33591543 127.51464092 -39.35045731 114.84051735 C-39.36481092 102.11079821 -39.36806557 89.38111368 -39.36001733 76.65138867 C-39.35594992 69.75424323 -39.356691 62.85718072 -39.37107468 55.96004677 C-39.38375799 49.64953459 -39.38266521 43.33918213 -39.37048396 37.02867035 C-39.36851738 34.7429275 -39.37164944 32.45717356 -39.38032833 30.17144635 C-39.39136385 27.06929845 -39.38397265 23.96771994 -39.3719368 20.86558819 C-39.37953199 19.97423907 -39.38712718 19.08288995 -39.39495254 18.16453025 C-39.32368055 9.67955699 -37.15737399 3.15737399 -31 -3 C-19.99457653 -11.06720737 -9.67865172 -8.05122489 0 0 Z " fill="#1D8796" transform="translate(297,123)"/>
<path d="M0 0 C3.31180322 2.16660024 6.55596719 4.38663372 9.7421875 6.734375 C28.26545491 20.31825404 48.33224924 29.17160049 70.77075195 34.22729492 C75.3974525 35.3249266 78.55495952 36.52270259 82 40 C83.76869114 42.99811757 84.44453928 45.73615799 85.0078125 49.15625 C89.28678216 73.5584141 97.5321607 96.10640013 114 115 C114.53882813 115.68191406 115.07765625 116.36382813 115.6328125 117.06640625 C123.42695671 126.68671469 133.67374616 133.66280594 145.5625 137 C150.12495779 137 153.21735299 135.46089449 157 133 C157.66 132.34 158.32 131.68 159 131 C161.125 131.375 161.125 131.375 163 132 C160.14723863 134.93200474 157.34920216 137.64315404 154 140 C154 139.34 154 138.68 154 138 C153.39414062 138.11859375 152.78828125 138.2371875 152.1640625 138.359375 C142.39586247 139.862175 135.23977669 136.38307738 127.34375 130.80859375 C102.24256404 111.43884525 87.08072083 81.19702524 82.60644531 50.14355469 C81.95074694 46.09167499 81.31775959 43.46230665 78.96484375 40.0390625 C74.99221273 37.30689729 71.23773464 36.46754739 66.5625 35.5 C64.75404205 35.08447069 62.94674191 34.66387079 61.140625 34.23828125 C60.25955078 34.03154785 59.37847656 33.82481445 58.47070312 33.61181641 C39.35937159 28.87930684 21.77669831 19.12889839 6.3125 7.1875 C5.68706299 6.70692139 5.06162598 6.22634277 4.41723633 5.73120117 C2.90483323 4.53641757 1.44671577 3.27353228 0 2 C0 1.34 0 0.68 0 0 Z " fill="#24818F" transform="translate(354,648)"/>
<path d="M0 0 C0.99 0.33 1.98 0.66 3 1 C3 1.66 3 2.32 3 3 C3.66 3 4.32 3 5 3 C13.32291917 12.63801245 18.10283486 22.16763254 18.14044189 34.95812988 C18.14900711 36.71184654 18.14900711 36.71184654 18.15774536 38.50099182 C18.15886322 39.76974655 18.15998108 41.03850128 18.16113281 42.34570312 C18.16576617 43.7062951 18.17079152 45.06688578 18.17617798 46.42747498 C18.18924906 50.11128889 18.19573587 53.79508462 18.20018864 57.47891808 C18.20312629 59.78225827 18.20723226 62.08559356 18.21169281 64.38893127 C18.22535016 71.60133003 18.23502696 78.81371751 18.2388947 86.02612829 C18.24337946 94.34211407 18.26095403 102.65793581 18.2898953 110.97387171 C18.31151693 117.41055464 18.32159914 123.84719141 18.32293582 130.28391027 C18.32398296 134.12493047 18.32987207 137.96579609 18.34775543 141.80677795 C18.36424587 145.41837196 18.36638707 149.02969529 18.35761642 152.64131355 C18.35648045 154.59389846 18.37018793 156.54647444 18.3843689 158.49900818 C18.33260263 169.36641449 18.33260263 169.36641449 15 174 C14.34 174.33 13.68 174.66 13 175 C13.32462314 174.29890484 13.64924627 173.59780968 13.98370647 172.87546921 C15.09941981 169.71870469 15.25413672 167.33359996 15.26069641 163.99249268 C15.26778122 162.78698761 15.27486603 161.58148254 15.28216553 160.33944702 C15.2784494 158.36786118 15.2784494 158.36786118 15.2746582 156.35644531 C15.27900775 154.95160654 15.28419171 153.54677014 15.29014587 152.14193726 C15.30352443 148.33180641 15.30411558 144.52177485 15.30158257 140.7116251 C15.30051159 137.52602364 15.30539976 134.34044217 15.310188 131.154845 C15.3212803 123.63446476 15.32172285 116.11413446 15.31567383 108.59375 C15.30964032 100.84970216 15.32192977 93.1058363 15.3432439 85.36181951 C15.36089472 78.70259804 15.36685558 72.0434343 15.36360615 65.38419032 C15.3617979 61.41172893 15.36438309 57.4393972 15.37832069 53.46695709 C15.39095037 49.72731274 15.38890677 45.9879504 15.37590981 42.24831009 C15.3724384 40.23308824 15.38368547 38.21785758 15.39547729 36.20266724 C15.33923542 26.44629664 14.06806295 19.0604357 8.0625 11.1875 C7.39347656 10.29417969 6.72445313 9.40085937 6.03515625 8.48046875 C4.0498339 5.96770359 4.0498339 5.96770359 1.74609375 3.80078125 C0 2 0 2 0 0 Z " fill="#248695" transform="translate(420,248)"/>
<path d="M0 0 C3.88943267 3.61800284 7.63096711 7.377324 11.37304688 11.14599609 C12.49693525 12.27044954 13.62126605 13.39446094 14.7460022 14.51806641 C17.77885061 17.55034406 20.80551901 20.58872164 23.83106804 23.62828016 C27.00116576 26.81093173 30.17697761 29.98787125 33.35217285 33.16543579 C39.35539601 39.17486009 45.35350528 45.18936161 51.34976816 51.20573008 C58.18019308 58.05855663 65.01633896 64.90566402 71.85295773 71.75231051 C85.90832105 85.82854486 99.95652877 99.91190187 114 114 C113.67 114.66 113.34 115.32 113 116 C107.88024019 111.60526064 103.22920841 107.25447105 99 102 C98.34 101.67 97.68 101.34 97 101 C97 100.34 97 99.68 97 99 C96.34 99 95.68 99 95 99 C93.66796875 97.64453125 93.66796875 97.64453125 92.1875 95.8125 C89.63441906 92.67077305 86.88405277 89.84194981 84 87 C83.02000557 86.0216618 82.04086637 85.04246631 81.0625 84.0625 C80.55976563 83.55976563 80.05703125 83.05703125 79.5390625 82.5390625 C74.02604167 77.02604167 68.51302083 71.51302083 63 66 C62.31292969 65.31421875 61.62585938 64.6284375 60.91796875 63.921875 C59.37327899 62.37403923 57.84088946 60.8139334 56.3125 59.25 C54.07059975 56.97899948 54.07059975 56.97899948 51.625 55.1875 C49.37918719 53.31598932 47.67317922 51.53643411 45.79150391 49.32495117 C42.25811818 45.24698046 38.54077353 41.41155456 34.7109375 37.61328125 C34.04462311 36.94838181 33.37830872 36.28348236 32.69180298 35.59843445 C30.5885683 33.50073241 28.4818687 31.40655144 26.375 29.3125 C24.95549538 27.89802104 23.53622265 26.48330932 22.1171875 25.06835938 C19.51363665 22.47292421 16.90877089 19.87882537 14.30224609 17.28637695 C6.35690003 9.38034602 6.35690003 9.38034602 3.859375 6.71875 C-1.94565634 0.61271703 -7.79742974 -5.12595041 -16.625 -5.5 C-23.30543398 -5.05851045 -28.24722784 -2.44894958 -32.77734375 2.37109375 C-34.54735478 4.72922346 -35.32285939 7.15600944 -36 10 C-36.66 9.67 -37.32 9.34 -38 9 C-36.31298131 2.55865592 -33.18809572 -1.86495572 -27.5625 -5.3125 C-16.88986721 -10.36795764 -8.55714353 -7.11829385 0 0 Z " fill="#1E8693" transform="translate(297,123)"/>
<path d="M0 0 C0.33 0 0.66 0 1 0 C1 20.79 1 41.58 1 63 C1.66 63 2.32 63 3 63 C3.02526648 70.52969652 3.04283141 78.0593822 3.05493164 85.58911133 C3.0599737 88.15291757 3.06680714 90.71672091 3.07543945 93.28051758 C3.08751064 96.95655021 3.09322942 100.63254498 3.09765625 104.30859375 C3.10281754 105.46274277 3.10797882 106.61689178 3.11329651 107.80601501 C3.11340981 109.3975515 3.11340981 109.3975515 3.11352539 111.02124023 C3.115746 111.96055893 3.11796661 112.89987762 3.12025452 113.86766052 C3 116 3 116 2 117 C0.65732587 117.08631874 -0.68974322 117.10706473 -2.03515625 117.09765625 C-2.84404297 117.09443359 -3.65292969 117.09121094 -4.48632812 117.08789062 C-5.33646484 117.07951172 -6.18660156 117.07113281 -7.0625 117.0625 C-7.91650391 117.05798828 -8.77050781 117.05347656 -9.65039062 117.04882812 C-11.76695663 117.03700373 -13.88348685 117.01906769 -16 117 C-15.505 116.01 -15.505 116.01 -15 115 C-10.05 114.67 -5.1 114.34 0 114 C0 76.38 0 38.76 0 0 Z " fill="#E92431" transform="translate(514,367)"/>
<path d="M0 0 C2.0696893 2.66936465 3.8607099 5.36199935 5.5234375 8.30078125 C5.9875 9.11353516 6.4515625 9.92628906 6.9296875 10.76367188 C7.88630015 12.4506712 8.84204247 14.13816437 9.796875 15.82617188 C11.99811061 19.6783342 14.22213886 23.40322962 16.8515625 26.98046875 C19 30 19 30 19 32 C19.66 32 20.32 32 21 32 C22.41015625 33.6171875 22.41015625 33.6171875 24.0625 35.875 C39.47829591 56.15392327 60.14868116 70.86306582 83.91796875 79.7734375 C87 81 87 81 90 83 C67.0122741 81.43265505 41.78905125 60.84665838 27 44 C0 11.6993865 0 11.6993865 0 0 Z " fill="#1C818E" transform="translate(272,760)"/>
<path d="M0 0 C3.2306462 2.70541844 4.77878596 6.24414697 6.625 9.9375 C10.40919499 17.25302087 14.78354737 23.60176696 20 30 C20.63550781 30.80050781 21.27101563 31.60101562 21.92578125 32.42578125 C30.0910596 42.21397207 40.27525552 49.55094892 52.5625 53 C57.12495779 53 60.21735299 51.46089449 64 49 C64.99 48.01 64.99 48.01 66 47 C68.125 47.375 68.125 47.375 70 48 C67.14723863 50.93200474 64.34920216 53.64315404 61 56 C61 55.34 61 54.68 61 54 C60.39414062 54.11859375 59.78828125 54.2371875 59.1640625 54.359375 C49.39586247 55.862175 42.23977669 52.38307738 34.34375 46.80859375 C19.09810263 35.04403586 7.67825053 19.66677112 0 2 C0 1.34 0 0.68 0 0 Z " fill="#24808D" transform="translate(447,732)"/>
<path d="M0 0 C1.13460134 3.40380402 1.08230201 5.90367012 1.02172852 9.4909668 C1.0073172 10.47185776 1.0073172 10.47185776 0.99261475 11.4725647 C0.95966373 13.63156026 0.9193168 15.790351 0.87890625 17.94921875 C0.85460131 19.44708028 0.83075794 20.94494937 0.80735779 22.44282532 C0.74455402 26.38352063 0.67547692 30.32408203 0.60510254 34.26464844 C0.53438559 38.28639635 0.46958874 42.30823913 0.40429688 46.33007812 C0.27533232 54.22015714 0.1397417 62.11010454 0 70 C-0.66 70 -1.32 70 -2 70 C-2.04628239 61.16846012 -2.08184825 52.3369618 -2.10362434 43.50532722 C-2.11407426 39.40471243 -2.12825537 35.30418042 -2.15087891 31.20361328 C-2.1725644 27.24844419 -2.18455952 23.29335489 -2.18975449 19.33813095 C-2.19345799 17.82700214 -2.20068975 16.31587783 -2.21146011 14.80478287 C-2.22591823 12.69283768 -2.22798037 10.58122476 -2.22705078 8.46923828 C-2.231492 7.26566681 -2.23593323 6.06209534 -2.24050903 4.822052 C-2 2 -2 2 0 0 Z " fill="#F31622" transform="translate(517,360)"/>
<path d="M0 0 C0.33 0 0.66 0 1 0 C1 24.75 1 49.5 1 75 C0.67 75 0.34 75 0 75 C-0.03758423 73.89881836 -0.03758423 73.89881836 -0.07592773 72.77539062 C-0.19415873 69.35017702 -0.31582385 65.92509289 -0.4375 62.5 C-0.47681641 61.34628906 -0.51613281 60.19257812 -0.55664062 59.00390625 C-0.78280361 52.70613692 -1.11434025 46.44003875 -1.59375 40.15625 C-2.18537497 31.71194965 -1.69208014 23.42803124 -1.0625 15 C-0.96063441 13.53131587 -0.85971943 12.06256548 -0.75976562 10.59375 C-0.51739065 7.06167332 -0.26242192 3.53065089 0 0 Z " fill="#F41623" transform="translate(516,696)"/>
<path d="M0 0 C2.48773324 0.01843676 4.9750956 0.02050767 7.46289062 0.02026367 C9.06706048 0.02517462 10.67122784 0.03100108 12.27539062 0.0378418 C13.37401932 0.03951103 13.37401932 0.03951103 14.49484253 0.04121399 C18.96665874 0.0820709 23.19599289 0.48309885 27.59570312 1.20581055 C27.26570313 1.86581055 26.93570313 2.52581055 26.59570312 3.20581055 C8.11570312 3.20581055 -10.36429687 3.20581055 -29.40429688 3.20581055 C-29.40429688 2.87581055 -29.40429688 2.54581055 -29.40429688 2.20581055 C-19.53696537 0.2555485 -10.0222816 -0.07686411 0 0 Z " fill="#F4101E" transform="translate(470.404296875,480.794189453125)"/>
<path d="M0 0 C0 3.65362967 -0.65089671 4.0548861 -3.10546875 6.6171875 C-3.75966797 7.30683594 -4.41386719 7.99648438 -5.08789062 8.70703125 C-5.78076172 9.42246094 -6.47363281 10.13789062 -7.1875 10.875 C-7.86103516 11.58269531 -8.53457031 12.29039062 -9.22851562 13.01953125 C-12.76966973 16.7299698 -16.35563415 20.39101634 -20 24 C-20.66 23.67 -21.32 23.34 -22 23 C-21.07316406 22.10796875 -20.14632813 21.2159375 -19.19140625 20.296875 C-17.98137722 19.11498618 -16.77176335 17.93267222 -15.5625 16.75 C-14.95083984 16.16347656 -14.33917969 15.57695313 -13.70898438 14.97265625 C-13.12568359 14.39902344 -12.54238281 13.82539062 -11.94140625 13.234375 C-11.40201416 12.71069336 -10.86262207 12.18701172 -10.30688477 11.64746094 C-8.8218205 9.77538665 -8.56138742 8.29038987 -8 6 C-5.625 4.4375 -5.625 4.4375 -3 3 C-1.24850835 1.41754725 -1.24850835 1.41754725 0 0 Z " fill="#287E8A" transform="translate(507,788)"/>
<path d="M0 0 C0.99 0.33 1.98 0.66 3 1 C3 1.66 3 2.32 3 3 C3.66 3 4.32 3 5 3 C10.346633 9.19144731 17 17.44541701 17 26 C16.34 26 15.68 26 15 26 C14.67 24.741875 14.34 23.48375 14 22.1875 C11.66400107 15.12361807 7.0431485 8.96931128 1.74609375 3.80078125 C0 2 0 2 0 0 Z " fill="#1E8390" transform="translate(420,248)"/>
<path d="M0 0 C2.125 0.375 2.125 0.375 4 1 C1.14723863 3.93200474 -1.65079784 6.64315404 -5 9 C-5 8.34 -5 7.68 -5 7 C-7.64 7.33 -10.28 7.66 -13 8 C-10.02999718 6.01999812 -7.05180034 4.53121208 -3.83984375 3 C-1.83260604 2.02166889 -1.83260604 2.02166889 0 0 Z " fill="#51707A" transform="translate(513,779)"/>
<path d="M0 0 C0.66 0.33 1.32 0.66 2 1 C1.33411865 1.61258667 1.33411865 1.61258667 0.65478516 2.23754883 C-1.35811428 4.09267193 -3.36658809 5.95251999 -5.375 7.8125 C-6.07367188 8.45509766 -6.77234375 9.09769531 -7.4921875 9.75976562 C-8.1625 10.38173828 -8.8328125 11.00371094 -9.5234375 11.64453125 C-10.14138184 12.21534424 -10.75932617 12.78615723 -11.39599609 13.37426758 C-13.2109108 15.11105844 -13.2109108 15.11105844 -15 18 C-15.66 18 -16.32 18 -17 18 C-15.43727522 14.2285078 -13.07921327 11.84402385 -10.1875 9 C-9.33542969 8.154375 -8.48335938 7.30875 -7.60546875 6.4375 C-5.16027385 4.14994135 -2.64475158 2.05122565 0 0 Z " fill="#228593" transform="translate(365,452)"/>
<path d="M0 0 C0.85722656 0.07605469 1.71445312 0.15210938 2.59765625 0.23046875 C5.24031092 0.88782358 6.23139456 1.73720454 7.9375 3.8125 C6.9475 4.1425 5.9575 4.4725 4.9375 4.8125 C4.6075 3.8225 4.2775 2.8325 3.9375 1.8125 C-0.3525 1.8125 -4.6425 1.8125 -9.0625 1.8125 C-5.09730607 -0.17009697 -4.14222768 -0.43109157 0 0 Z " fill="#DC2832" transform="translate(535.0625,349.1875)"/>
<path d="M0 0 C3.49135723 1.3174933 6.89723706 2.74728431 10.3125 4.25 C5.79157032 5.70606519 2.79601204 4.52032841 -1.6875 3.25 C-1.6875 2.59 -1.6875 1.93 -1.6875 1.25 C-2.6775 0.92 -3.6675 0.59 -4.6875 0.25 C-2.6875 -0.75 -2.6875 -0.75 0 0 Z " fill="#E72733" transform="translate(417.6875,624.75)"/>
<path d="M0 0 C4.2742558 1.5830577 6.26531794 4.50568404 9 8 C8.01 8 7.02 8 6 8 C4.62131719 6.37064759 3.28725907 4.70250393 2 3 C1.34 2.67 0.68 2.34 0 2 C0 1.34 0 0.68 0 0 Z " fill="#208896" transform="translate(411,239)"/>
<path d="M0 0 C0.66 0.33 1.32 0.66 2 1 C-1.625 6.875 -1.625 6.875 -5 8 C-3.8141763 4.62496331 -2.72426311 2.35277269 0 0 Z " fill="#E4242E" transform="translate(521,353)"/>
<path d="M0 0 C-0.99 0 -1.98 0 -3 0 C-3 0.66 -3 1.32 -3 2 C-4.8125 2.625 -4.8125 2.625 -7 3 C-7.99 2.34 -8.98 1.68 -10 1 C-3.71428571 -1.42857143 -3.71428571 -1.42857143 0 0 Z " fill="#E82A35" transform="translate(430,485)"/>
<path d="M0 0 C1.32 0.33 2.64 0.66 4 1 C3.01 1.495 3.01 1.495 2 2 C1.34 1.34 0.68 0.68 0 0 Z " fill="#3F93A0" transform="translate(396,672)"/>
<path d="M0 0 C1 4 1 4 1 4 Z " fill="#2694A2" transform="translate(256,168)"/>
<path d="M0 0 C1 4 1 4 1 4 Z " fill="#2695A3" transform="translate(256,152)"/>
<path d="" fill="#2493A2" transform="translate(0,0)"/>
<path d="" fill="#2592A1" transform="translate(0,0)"/>
<path d="" fill="#2692A1" transform="translate(0,0)"/>
<path d="" fill="#2594A2" transform="translate(0,0)"/>
<path d="" fill="#2594A2" transform="translate(0,0)"/>
<path d="" fill="#2594A3" transform="translate(0,0)"/>
<path d="" fill="#2593A2" transform="translate(0,0)"/>
<path d="" fill="#2493A3" transform="translate(0,0)"/>
<path d="" fill="#2493A1" transform="translate(0,0)"/>
<path d="" fill="#2594A2" transform="translate(0,0)"/>
<path d="" fill="#2394A2" transform="translate(0,0)"/>
<path d="" fill="#2393A1" transform="translate(0,0)"/>
<path d="" fill="#2594A2" transform="translate(0,0)"/>
<path d="" fill="#2693A0" transform="translate(0,0)"/>
<path d="" fill="#2594A3" transform="translate(0,0)"/>
<path d="" fill="#2694A2" transform="translate(0,0)"/>
<path d="" fill="#2492A1" transform="translate(0,0)"/>
<path d="" fill="#3B98A5" transform="translate(0,0)"/>
<path d="" fill="#2892A2" transform="translate(0,0)"/>
<path d="" fill="#25929F" transform="translate(0,0)"/>
<path d="" fill="#2691A0" transform="translate(0,0)"/>
<path d="" fill="#CA3B47" transform="translate(0,0)"/>
<path d="" fill="#2593A2" transform="translate(0,0)"/>
<path d="" fill="#2692A3" transform="translate(0,0)"/>
<path d="" fill="#2694A2" transform="translate(0,0)"/>
<path d="" fill="#2796A4" transform="translate(0,0)"/>
<path d="" fill="#2A95A0" transform="translate(0,0)"/>
<path d="" fill="#2C97A1" transform="translate(0,0)"/>
<path d="" fill="#2B98A4" transform="translate(0,0)"/>
<path d="" fill="#2998A6" transform="translate(0,0)"/>
<path d="" fill="#25909B" transform="translate(0,0)"/>
<path d="" fill="#27939F" transform="translate(0,0)"/>
<path d="" fill="#29909C" transform="translate(0,0)"/>
<path d="" fill="#2894A0" transform="translate(0,0)"/>
<path d="" fill="#54838C" transform="translate(0,0)"/>
<path d="" fill="#92585D" transform="translate(0,0)"/>
<path d="" fill="#42929E" transform="translate(0,0)"/>
<path d="" fill="#2893A0" transform="translate(0,0)"/>
<path d="" fill="#2894A1" transform="translate(0,0)"/>
<path d="" fill="#2998A3" transform="translate(0,0)"/>
<path d="" fill="#3796A2" transform="translate(0,0)"/>
<path d="" fill="#4096A2" transform="translate(0,0)"/>
<path d="" fill="#2796A5" transform="translate(0,0)"/>
<path d="" fill="#2A99A7" transform="translate(0,0)"/>
<path d="" fill="#40949D" transform="translate(0,0)"/>
<path d="" fill="#2895A1" transform="translate(0,0)"/>
<path d="" fill="#4D929C" transform="translate(0,0)"/>
<path d="" fill="#3996A3" transform="translate(0,0)"/>
<path d="" fill="#E72B3B" transform="translate(0,0)"/>
<path d="" fill="#2895A2" transform="translate(0,0)"/>
<path d="" fill="#D73B4B" transform="translate(0,0)"/>
<path d="" fill="#D0404D" transform="translate(0,0)"/>
<path d="" fill="#D23E4C" transform="translate(0,0)"/>
<path d="" fill="#D43B4A" transform="translate(0,0)"/>
<path d="" fill="#D03D4B" transform="translate(0,0)"/>
<path d="" fill="#2692A4" transform="translate(0,0)"/>
<path d="" fill="#D63E4D" transform="translate(0,0)"/>
<path d="" fill="#3B96A3" transform="translate(0,0)"/>
<path d="" fill="#2794A3" transform="translate(0,0)"/>
<path d="" fill="#2593A1" transform="translate(0,0)"/>
<path d="" fill="#CF424F" transform="translate(0,0)"/>
<path d="" fill="#2595A3" transform="translate(0,0)"/>
<path d="" fill="#CB434F" transform="translate(0,0)"/>
<path d="" fill="#CD404D" transform="translate(0,0)"/>
<path d="" fill="#2492A1" transform="translate(0,0)"/>
<path d="" fill="#2693A4" transform="translate(0,0)"/>
<path d="" fill="#2693A1" transform="translate(0,0)"/>
<path d="" fill="#CE414E" transform="translate(0,0)"/>
<path d="" fill="#2594A4" transform="translate(0,0)"/>
<path d="" fill="#CE2931" transform="translate(0,0)"/>
<path d="" fill="#4099A8" transform="translate(0,0)"/>
<path d="" fill="#2595A3" transform="translate(0,0)"/>
<path d="" fill="#2592A3" transform="translate(0,0)"/>
<path d="" fill="#D2434F" transform="translate(0,0)"/>
<path d="" fill="#2493A4" transform="translate(0,0)"/>
<path d="" fill="#2495A1" transform="translate(0,0)"/>
<path d="" fill="#CD4550" transform="translate(0,0)"/>
<path d="" fill="#2694A5" transform="translate(0,0)"/>
<path d="" fill="#2797A4" transform="translate(0,0)"/>
<path d="" fill="#D23E4C" transform="translate(0,0)"/>
<path d="" fill="#3E98A4" transform="translate(0,0)"/>
<path d="" fill="#D1424F" transform="translate(0,0)"/>
<path d="" fill="#D0404F" transform="translate(0,0)"/>
<path d="" fill="#3F96A1" transform="translate(0,0)"/>
<path d="" fill="#D1424F" transform="translate(0,0)"/>
<path d="" fill="#D04050" transform="translate(0,0)"/>
<path d="" fill="#D03945" transform="translate(0,0)"/>
<path d="" fill="#4296A0" transform="translate(0,0)"/>
<path d="" fill="#2593A2" transform="translate(0,0)"/>
<path d="" fill="#2793A3" transform="translate(0,0)"/>
<path d="" fill="#4099A4" transform="translate(0,0)"/>
<path d="" fill="#2493A3" transform="translate(0,0)"/>
<path d="" fill="#3C9AA4" transform="translate(0,0)"/>
<path d="" fill="#3D95A2" transform="translate(0,0)"/>
<path d="" fill="#2594A2" transform="translate(0,0)"/>
<path d="" fill="#3F9AA6" transform="translate(0,0)"/>
<path d="" fill="#4298A2" transform="translate(0,0)"/>
<path d="" fill="#2694A4" transform="translate(0,0)"/>
<path d="" fill="#2393A2" transform="translate(0,0)"/>
<path d="" fill="#2295A4" transform="translate(0,0)"/>
<path d="" fill="#47939E" transform="translate(0,0)"/>
<path d="" fill="#2691A2" transform="translate(0,0)"/>
<path d="" fill="#2796A2" transform="translate(0,0)"/>
<path d="" fill="#3F95A3" transform="translate(0,0)"/>
<path d="" fill="#2393A2" transform="translate(0,0)"/>
<path d="" fill="#2394A1" transform="translate(0,0)"/>
<path d="" fill="#2594A2" transform="translate(0,0)"/>
<path d="" fill="#2593A2" transform="translate(0,0)"/>
<path d="" fill="#2592A1" transform="translate(0,0)"/>
<path d="" fill="#C13A42" transform="translate(0,0)"/>
<path d="" fill="#2492A1" transform="translate(0,0)"/>
<path d="" fill="#2593A3" transform="translate(0,0)"/>
<path d="" fill="#2793A3" transform="translate(0,0)"/>
<path d="" fill="#2394A2" transform="translate(0,0)"/>
<path d="" fill="#32929D" transform="translate(0,0)"/>
<path d="" fill="#2394A2" transform="translate(0,0)"/>
<path d="" fill="#2394A3" transform="translate(0,0)"/>
<path d="" fill="#2695A3" transform="translate(0,0)"/>
<path d="" fill="#2795A4" transform="translate(0,0)"/>
<path d="" fill="#2593A1" transform="translate(0,0)"/>
<path d="" fill="#2495A3" transform="translate(0,0)"/>
<path d="" fill="#2693A2" transform="translate(0,0)"/>
<path d="" fill="#2897A2" transform="translate(0,0)"/>
<path d="" fill="#2393A4" transform="translate(0,0)"/>
<path d="" fill="#2595A2" transform="translate(0,0)"/>
<path d="" fill="#2498A5" transform="translate(0,0)"/>
<path d="" fill="#2395A4" transform="translate(0,0)"/>
<path d="" fill="#2596A3" transform="translate(0,0)"/>
<path d="" fill="#289AA6" transform="translate(0,0)"/>
</svg>
